<?xml version="1.0" encoding="UTF-8" standalone="no"?>
<svg viewBox="0 0 800 500" xmlns="http://www.w3.org/2000/svg">
  <!-- Fondo -->
  <rect width="800" height="500" fill="#23395d" rx="10" ry="10"/>
  
  <!-- Efecto de gradiente de fondo -->
  <defs>
    <radialGradient id="bgGlow" cx="50%" cy="50%" r="50%" fx="50%" fy="50%">
      <stop offset="0%" stop-color="#3a6ea5" stop-opacity="0.4"/>
      <stop offset="100%" stop-color="#23395d" stop-opacity="0"/>
    </radialGradient>
  </defs>
  <circle cx="400" cy="250" r="250" fill="url(#bgGlow)"/>
  
  <!-- Línea divisoria central con efecto de brillo -->
  <line x1="400" y1="100" x2="400" y2="400" stroke="#f0f0f0" stroke-width="5" stroke-dasharray="10,5"/>
  <circle cx="400" cy="250" r="30" fill="#ff6b6b" opacity="0.5">
    <animate attributeName="r" values="20;40;20" dur="3s" repeatCount="indefinite"/>
    <animate attributeName="opacity" values="0.3;0.7;0.3" dur="3s" repeatCount="indefinite"/>
  </circle>
  
  <!-- Texto VS en el centro -->
  <text x="400" y="250" font-family="Arial, sans-serif" font-size="60" font-weight="bold" text-anchor="middle" fill="#ff6b6b" stroke="#f0f0f0" stroke-width="2">VS</text>
  
  <!-- Usuario 1 (lado izquierdo) - Estilo azul -->
  <g id="user1-side">
    <!-- Silueta humana -->
    <circle cx="200" cy="180" r="45" fill="#4ecdc4"/>
    <path d="M160 250 Q200 180 240 250 L240 320 L160 320 Z" fill="#4ecdc4"/>
    
    <!-- Detalles de usuario -->
    <text x="200" y="380" font-family="Arial, sans-serif" font-size="24" font-weight="bold" text-anchor="middle" fill="#f0f0f0">JUGADOR 1</text>
    
    <!-- Elementos de "poder" del usuario -->
    <circle cx="120" cy="150" r="15" fill="#4ecdc4" opacity="0.8">
      <animate attributeName="r" values="13;16;13" dur="2s" repeatCount="indefinite"/>
    </circle>
    <circle cx="280" cy="150" r="15" fill="#4ecdc4" opacity="0.8">
      <animate attributeName="r" values="13;16;13" dur="2s" repeatCount="indefinite"/>
    </circle>
    
    <!-- Elementos distintivos usuario 1 -->
    <circle cx="180" cy="165" r="8" fill="#f0f0f0"/>
    <circle cx="220" cy="165" r="8" fill="#f0f0f0"/>
    <path d="M185 200 Q200 215 215 200" fill="none" stroke="#f0f0f0" stroke-width="3" stroke-linecap="round"/>
    
    <!-- Aura del jugador 1 -->
    <circle cx="200" cy="230" r="100" fill="none" stroke="#4ecdc4" stroke-width="2" opacity="0.3">
      <animate attributeName="r" values="95;105;95" dur="4s" repeatCount="indefinite"/>
      <animate attributeName="opacity" values="0.2;0.4;0.2" dur="4s" repeatCount="indefinite"/>
    </circle>
  </g>
  
  <!-- Usuario 2 (lado derecho) - Estilo rojo/naranja -->
  <g id="user2-side">
    <!-- Silueta humana -->
    <circle cx="600" cy="180" r="45" fill="#ff9f1c"/>
    <path d="M560 250 Q600 180 640 250 L640 320 L560 320 Z" fill="#ff9f1c"/>
    
    <!-- Detalles de usuario -->
    <text x="600" y="380" font-family="Arial, sans-serif" font-size="24" font-weight="bold" text-anchor="middle" fill="#f0f0f0">JUGADOR 2</text>
    
    <!-- Elementos de "poder" del usuario 2 -->
    <circle cx="520" cy="150" r="15" fill="#ff9f1c" opacity="0.8">
      <animate attributeName="r" values="13;16;13" dur="2s" repeatCount="indefinite"/>
    </circle>
    <circle cx="680" cy="150" r="15" fill="#ff9f1c" opacity="0.8">
      <animate attributeName="r" values="13;16;13" dur="2s" repeatCount="indefinite"/>
    </circle>
    
    <!-- Elementos distintivos usuario 2 -->
    <circle cx="580" cy="165" r="8" fill="#f0f0f0"/>
    <circle cx="620" cy="165" r="8" fill="#f0f0f0"/>
    <path d="M585 200 Q600 215 615 200" fill="none" stroke="#f0f0f0" stroke-width="3" stroke-linecap="round"/>
    
    <!-- Aura del jugador 2 -->
    <circle cx="600" cy="230" r="100" fill="none" stroke="#ff9f1c" stroke-width="2" opacity="0.3">
      <animate attributeName="r" values="95;105;95" dur="4s" repeatCount="indefinite"/>
      <animate attributeName="opacity" values="0.2;0.4;0.2" dur="4s" repeatCount="indefinite"/>
    </circle>
  </g>
  
  <!-- Efectos de energía chocando en el centro -->
  <g id="energy-effects">
    <!-- Rayos de energía -->
    <path d="M300 200 Q350 250 320 280" fill="none" stroke="#4ecdc4" stroke-width="3" stroke-linecap="round">
      <animate attributeName="opacity" values="0.3;0.8;0.3" dur="2s" repeatCount="indefinite"/>
    </path>
    <path d="M500 200 Q450 250 480 280" fill="none" stroke="#ff9f1c" stroke-width="3" stroke-linecap="round">
      <animate attributeName="opacity" values="0.3;0.8;0.3" dur="2s" repeatCount="indefinite"/>
    </path>
    
    <!-- Chispas de energía en el centro -->
    <circle cx="390" cy="240" r="5" fill="#f0f0f0">
      <animate attributeName="r" values="3;6;3" dur="1s" repeatCount="indefinite"/>
      <animate attributeName="opacity" values="0.5;1;0.5" dur="1s" repeatCount="indefinite"/>
    </circle>
    <circle cx="410" cy="240" r="5" fill="#f0f0f0">
      <animate attributeName="r" values="3;6;3" dur="1.2s" repeatCount="indefinite"/>
      <animate attributeName="opacity" values="0.5;1;0.5" dur="1.2s" repeatCount="indefinite"/>
    </circle>
    <circle cx="400" cy="220" r="5" fill="#f0f0f0">
      <animate attributeName="r" values="3;6;3" dur="0.8s" repeatCount="indefinite"/>
      <animate attributeName="opacity" values="0.5;1;0.5" dur="0.8s" repeatCount="indefinite"/>
    </circle>
  </g>
  
  <!-- Elementos de combate -->
  <g id="battle-elements">
    <!-- Espadas cruzadas detrás del VS -->
    <path d="M370 200 L430 300" stroke="#f0f0f0" stroke-width="3" opacity="0.5"/>
    <path d="M430 200 L370 300" stroke="#f0f0f0" stroke-width="3" opacity="0.5"/>
  </g>
  
  <!-- Título del juego en la parte superior -->
  <text x="400" y="60" font-family="Arial, sans-serif" font-size="32" font-weight="bold" text-anchor="middle" fill="#f0f0f0">USUARIO VS USUARIO</text>
  
  <!-- Decoraciones de fondo -->
  <g opacity="0.2">
    <!-- Estrellas/partículas decorativas -->
    <circle cx="100" cy="100" r="2" fill="#f0f0f0"/>
    <circle cx="150" cy="80" r="1" fill="#f0f0f0"/>
    <circle cx="200" cy="120" r="2" fill="#f0f0f0"/>
    <circle cx="700" cy="100" r="2" fill="#f0f0f0"/>
    <circle cx="650" cy="80" r="1" fill="#f0f0f0"/>
    <circle cx="600" cy="120" r="2" fill="#f0f0f0"/>
    <circle cx="300" cy="50" r="1" fill="#f0f0f0"/>
    <circle cx="500" cy="50" r="1" fill="#f0f0f0"/>
    <circle cx="100" cy="400" r="1" fill="#f0f0f0"/>
    <circle cx="700" cy="400" r="1" fill="#f0f0f0"/>
    
    <!-- Formas geométricas decorativas -->
    <rect x="50" y="150" width="30" height="5" rx="2" ry="2" fill="#4ecdc4" opacity="0.5"/>
    <rect x="720" y="150" width="30" height="5" rx="2" ry="2" fill="#ff9f1c" opacity="0.5"/>
    <circle cx="50" cy="350" r="15" fill="#4ecdc4" opacity="0.3"/>
    <circle cx="750" cy="350" r="15" fill="#ff9f1c" opacity="0.3"/>
  </g>
  
  <!-- Elementos de interfaz de juego -->
  <g id="game-ui-elements">
    <!-- Barras de vida -->
    <rect x="100" y="100" width="200" height="20" rx="5" ry="5" fill="none" stroke="#f0f0f0" stroke-width="2"/>
    <rect x="100" y="100" width="180" height="20" rx="5" ry="5" fill="#4ecdc4" opacity="0.8"/>
    
    <rect x="500" y="100" width="200" height="20" rx="5" ry="5" fill="none" stroke="#f0f0f0" stroke-width="2"/>
    <rect x="500" y="100" width="150" height="20" rx="5" ry="5" fill="#ff9f1c" opacity="0.8"/>
  </g>
</svg>